<svg xmlns="http://www.w3.org/2000/svg" width="980" height="760" viewBox="0 0 980 760">
  <rect width="980" height="760" fill="#fffaf1"/>
  <rect x="8" y="8" width="964" height="70" fill="none" stroke="#c7b8a0"/>
  <text x="20" y="36" font-family="Arial, sans-serif" font-size="24" font-weight="700" fill="#2b241d">Resumen del último CSV</text>
  <text x="20" y="56" font-family="Arial, sans-serif" font-size="16" font-weight="700" fill="#2b241d">Configuraciones de clientes: 10 a 200</text>
  <text x="20" y="76" font-family="Arial, sans-serif" font-size="16" font-weight="700" fill="#2b241d">Puntos graficados: 5 | repeticiones agregadas: 253</text>
  <text x="20" y="96" font-family="Arial, sans-serif" font-size="16" font-weight="700" fill="#2b241d">Series mostradas: latencia promedio de registro/juego y éxito de registro/juego.</text>

  <rect x="8" y="92" width="964" height="300" fill="none" stroke="#c7b8a0"/>
  <text x="60" y="128" font-family="Arial, sans-serif" font-size="18" font-weight="700" fill="#6f6152">Latencia promedio (ms)</text>
  <text x="20" y="155" font-family="Arial, sans-serif" font-size="14" fill="#6f6152">ms</text>
  <line x1="68" y1="170" x2="950" y2="170" stroke="#e0d6c5"/>
  <line x1="68" y1="220" x2="950" y2="220" stroke="#e0d6c5"/>
  <line x1="68" y1="270" x2="950" y2="270" stroke="#e0d6c5"/>
  <line x1="68" y1="320" x2="950" y2="320" stroke="#e0d6c5"/>
  <line x1="68" y1="370" x2="950" y2="370" stroke="#e0d6c5"/>
  <line x1="68" y1="145" x2="68" y2="370" stroke="#6f6152"/>
  <line x1="68" y1="370" x2="950" y2="370" stroke="#6f6152"/>

  <polyline points="68,365 290,350 511,315 733,240 950,180" fill="none" stroke="#2a7862" stroke-width="3"/>
  <circle cx="68" cy="365" r="4.5" fill="#2a7862"/>
  <circle cx="290" cy="350" r="4.5" fill="#2a7862"/>
  <circle cx="511" cy="315" r="4.5" fill="#2a7862"/>
  <circle cx="733" cy="240" r="4.5" fill="#2a7862"/>
  <circle cx="950" cy="180" r="4.5" fill="#2a7862"/>

  <polyline points="68,368 290,348 511,343 733,346 950,347" fill="none" stroke="#c7633b" stroke-width="3"/>
  <circle cx="68" cy="368" r="4.5" fill="#c7633b"/>
  <circle cx="290" cy="348" r="4.5" fill="#c7633b"/>
  <circle cx="511" cy="343" r="4.5" fill="#c7633b"/>
  <circle cx="733" cy="346" r="4.5" fill="#c7633b"/>
  <circle cx="950" cy="347" r="4.5" fill="#c7633b"/>

  <rect x="775" y="132" width="14" height="14" fill="#2a7862"/>
  <text x="795" y="144" font-family="Arial, sans-serif" font-size="14" fill="#6f6152">Registro</text>
  <rect x="775" y="152" width="14" height="14" fill="#c7633b"/>
  <text x="795" y="164" font-family="Arial, sans-serif" font-size="14" fill="#6f6152">Juego</text>

  <text x="68" y="392" font-family="Arial, sans-serif" font-size="14" fill="#6f6152">10</text>
  <text x="285" y="392" font-family="Arial, sans-serif" font-size="14" fill="#6f6152">50</text>
  <text x="502" y="392" font-family="Arial, sans-serif" font-size="14" fill="#6f6152">100</text>
  <text x="724" y="392" font-family="Arial, sans-serif" font-size="14" fill="#6f6152">150</text>
  <text x="944" y="392" font-family="Arial, sans-serif" font-size="14" fill="#6f6152">200</text>
  <text x="900" y="412" font-family="Arial, sans-serif" font-size="14" fill="#6f6152">Clientes</text>

  <rect x="8" y="412" width="964" height="340" fill="none" stroke="#c7b8a0"/>
  <text x="60" y="448" font-family="Arial, sans-serif" font-size="18" font-weight="700" fill="#6f6152">Éxito promedio (%)</text>
  <text x="20" y="475" font-family="Arial, sans-serif" font-size="14" fill="#6f6152">%</text>
  <line x1="68" y1="490" x2="950" y2="490" stroke="#e0d6c5"/>
  <line x1="68" y1="540" x2="950" y2="540" stroke="#e0d6c5"/>
  <line x1="68" y1="590" x2="950" y2="590" stroke="#e0d6c5"/>
  <line x1="68" y1="640" x2="950" y2="640" stroke="#e0d6c5"/>
  <line x1="68" y1="690" x2="950" y2="690" stroke="#e0d6c5"/>
  <line x1="68" y1="465" x2="68" y2="690" stroke="#6f6152"/>
  <line x1="68" y1="690" x2="950" y2="690" stroke="#6f6152"/>

  <polyline points="68,525 290,525 511,525 733,525 950,555" fill="none" stroke="#2a7862" stroke-width="3"/>
  <circle cx="68" cy="525" r="4.5" fill="#2a7862"/>
  <circle cx="290" cy="525" r="4.5" fill="#2a7862"/>
  <circle cx="511" cy="525" r="4.5" fill="#2a7862"/>
  <circle cx="733" cy="525" r="4.5" fill="#2a7862"/>
  <circle cx="950" cy="555" r="4.5" fill="#2a7862"/>

  <polyline points="68,650 290,648 511,660 733,632 950,652" fill="none" stroke="#c7633b" stroke-width="3"/>
  <circle cx="68" cy="650" r="4.5" fill="#c7633b"/>
  <circle cx="290" cy="648" r="4.5" fill="#c7633b"/>
  <circle cx="511" cy="660" r="4.5" fill="#c7633b"/>
  <circle cx="733" cy="632" r="4.5" fill="#c7633b"/>
  <circle cx="950" cy="652" r="4.5" fill="#c7633b"/>

  <rect x="775" y="452" width="14" height="14" fill="#2a7862"/>
  <text x="795" y="464" font-family="Arial, sans-serif" font-size="14" fill="#6f6152">Registro</text>
  <rect x="775" y="472" width="14" height="14" fill="#c7633b"/>
  <text x="795" y="484" font-family="Arial, sans-serif" font-size="14" fill="#6f6152">Juego</text>

  <text x="68" y="712" font-family="Arial, sans-serif" font-size="14" fill="#6f6152">10</text>
  <text x="285" y="712" font-family="Arial, sans-serif" font-size="14" fill="#6f6152">50</text>
  <text x="502" y="712" font-family="Arial, sans-serif" font-size="14" fill="#6f6152">100</text>
  <text x="724" y="712" font-family="Arial, sans-serif" font-size="14" fill="#6f6152">150</text>
  <text x="944" y="712" font-family="Arial, sans-serif" font-size="14" fill="#6f6152">200</text>
  <text x="900" y="740" font-family="Arial, sans-serif" font-size="14" fill="#6f6152">Clientes</text>
</svg>
